<svg xmlns="http://www.w3.org/2000/svg" fill="none" width="64" height="64" viewBox="0 0 64 64">
  <g fill="#000" clip-path="url(#a)">
    <path d="M31.9972 2.70923c16.1481 0 29.2879 13.13977 29.2879 29.28797 0 16.1481-13.1398 29.2879-29.2879 29.2879-16.1482 0-29.28797-13.1341-29.28797-29.2879S15.849 2.70923 31.9972 2.70923Zm0-2.70923C14.3251 0 0 14.3251 0 31.9972s14.3251 31.9972 31.9972 31.9972 31.9972-14.3251 31.9972-31.9972S49.6693 0 31.9972 0Z"/>
    <path fill-rule="evenodd" d="M14 25.9014c0-9.9395 8.06-17.99947 17.9995-17.99947S49.9989 15.9619 49.9989 25.9014v21.8263c0 1.0442-.8466 1.8908-1.8908 1.8908h-8.551v-2.856H23.8492v2.856h-7.9584c-1.0442 0-1.8908-.8466-1.8908-1.8908V25.9014Zm6.2651 1.5296c.762 5.8361 5.695 10.3572 11.7344 10.3572 6.0393 0 10.9724-4.5211 11.7343-10.3572h-2.7939v3.0987l-6.0506-4.6339 6.0506-4.634v3.0366h2.7883c-.7902-5.8022-5.7063-10.2894-11.7287-10.2894s-10.9442 4.4872-11.7288 10.2894h2.7883v-3.0366l6.0506 4.634-6.0506 4.6339V27.431h-2.7939Zm14.0463-1.5296c0 1.2781-1.0361 2.3141-2.3142 2.3141-1.278 0-2.3141-1.036-2.3141-2.3141 0-1.2781 1.0361-2.3141 2.3141-2.3141 1.2781 0 2.3142 1.036 2.3142 2.3141Z" clip-rule="evenodd"/>
  </g>
  <defs>
    <clipPath id="a">
      <path fill="currentColor" d="M0 0h64v64H0z"/>
    </clipPath>
  </defs>
</svg>
