<svg xmlns="http://www.w3.org/2000/svg" fill="none" width="64" height="64" viewBox="0 0 64 64">
  <g fill="currentColor" clip-path="url(#a)">
    <path d="M31.9972 2.70923c16.1481 0 29.2879 13.13977 29.2879 29.28797 0 16.1481-13.1398 29.2879-29.2879 29.2879-16.1482 0-29.28797-13.1341-29.28797-29.2879S15.849 2.70923 31.9972 2.70923Zm0-2.70923C14.3251 0 0 14.3251 0 31.9972s14.3251 31.9972 31.9972 31.9972 31.9972-14.3251 31.9972-31.9972S49.6693 0 31.9972 0Z"/>
    <path d="M36.552 30.603h11.3336v-2.6527l5.283 4.0469-5.283 4.0525v-2.6528H36.552v2.6528l-5.2886-4.0525 5.2886-4.0469v2.6527ZM53.7161 36.0497h1.6707v-8.0994h-1.6707v8.0994Z"/>
    <path d="M28.1873 38.9622c1.702 0 3.0817-3.1184 3.0817-6.965 0-3.8467-1.3797-6.965-3.0817-6.965-1.702 0-3.0818 3.1183-3.0818 6.965 0 3.8466 1.3798 6.965 3.0818 6.965Z"/>
    <path d="m30.8684 18.0446-1.4223-2.0319L8.06004 30.9812c-.33301.2314-.53056.6096-.53056 1.016s.19755.7789.53056 1.0159L29.4461 47.9817l1.4223-2.032L10.933 31.9972 30.8684 18.039v.0056Z"/>
    <path d="m27.115 45.8764-1.3942-.9596c2.4948-3.6349 3.8663-8.2236 3.8663-12.9253 0-4.7016-1.3715-9.2904-3.8663-12.9196l1.3942-.9595c2.6866 3.9114 4.1654 8.8388 4.1654 13.8791 0 5.0403-1.4788 9.9677-4.1654 13.8792v.0057Z"/>
  </g>
  <defs>
    <clipPath id="a">
      <path fill="currentColor" d="M0 0h64v64H0z"/>
    </clipPath>
  </defs>
</svg>
