<svg xmlns="http://www.w3.org/2000/svg" fill="none" width="64" height="64" viewBox="0 0 64 64">
  <g fill="currentColor" clip-path="url(#a)">
    <path d="M31.9972 2.70923c16.1481 0 29.2879 13.13977 29.2879 29.28797 0 16.1481-13.1398 29.2879-29.2879 29.2879-16.1482 0-29.28797-13.1341-29.28797-29.2879S15.849 2.70923 31.9972 2.70923Zm0-2.70923C14.3251 0 0 14.3251 0 31.9972s14.3251 31.9972 31.9972 31.9972 31.9972-14.3251 31.9972-31.9972S49.6693 0 31.9972 0Z"/>
    <path d="M31.9972 17.1246c8.2011 0 14.8726 6.6715 14.8726 14.8726s-6.6715 14.8725-14.8726 14.8725-14.8726-6.6714-14.8726-14.8725 6.6715-14.8726 14.8726-14.8726Zm0-4.5154c-10.7071 0-19.3879 8.6809-19.3879 19.388 0 10.7071 8.6808 19.3879 19.3879 19.3879 10.7071 0 19.388-8.6808 19.388-19.3879 0-10.7071-8.6809-19.388-19.388-19.388Z"/>
    <path d="m46.8254 42.0372-4.7893 4.7893 4.5259 4.5259 4.7892-4.7893-4.5258-4.5259ZM38.2961 30.3265h-4.5097v-4.5831h-3.4148v4.5831h-4.5831v3.4147h4.5831v4.5154h3.4148v-4.5154h4.5097v-3.4147Z"/>
  </g>
  <defs>
    <clipPath id="a">
      <path fill="#fff" d="M0 0h64v64H0z"/>
    </clipPath>
  </defs>
</svg>
