<svg xmlns="http://www.w3.org/2000/svg" fill="none" width="64" height="64" viewBox="0 0 64 64">
  <g fill="currentColor" clip-path="url(#a)">
    <path d="M31.9972 2.70923c16.1481 0 29.2879 13.13977 29.2879 29.28797 0 16.1481-13.1398 29.2879-29.2879 29.2879-16.1482 0-29.28797-13.1341-29.28797-29.2879S15.849 2.70923 31.9972 2.70923Zm0-2.70923C14.3251 0 0 14.3251 0 31.9972s14.3251 31.9972 31.9972 31.9972 31.9972-14.3251 31.9972-31.9972S49.6693 0 31.9972 0Z"/>
    <path d="M31.9972 25.1225c1.1472 0 2.0771-.9299 2.0771-2.0771 0-1.1471-.9299-2.0771-2.0771-2.0771-1.1471 0-2.077.93-2.077 2.0771 0 1.1472.9299 2.0771 2.077 2.0771Z"/>
    <path d="M47.1859 38.2341V23.0454c0-8.3873-6.8013-15.18861-15.1887-15.18861-8.3873 0-15.1886 6.80131-15.1886 15.18861v15.1887h30.3773ZM31.9972 13.0156c5.5427 0 10.0355 4.4928 10.0355 10.0298s-4.4928 10.0355-10.0355 10.0355c-5.5426 0-10.0298-4.4928-10.0298-10.0355 0-5.5426 4.4928-10.0298 10.0298-10.0298ZM16.8086 46.8077v3.2285c0 .8805.7112 1.5916 1.5917 1.5916h6.7166v-2.4101h13.2583v2.4101h7.219c.8805 0 1.5917-.7111 1.5917-1.5916v-3.2285H16.8086Z"/>
  </g>
  <defs>
    <clipPath id="a">
      <path fill="#fff" d="M0 0h64v64H0z"/>
    </clipPath>
  </defs>
</svg>
