<svg xmlns="http://www.w3.org/2000/svg" fill="none" width="64" height="64" viewBox="0 0 64 64">
  <g fill="currentColor" clip-path="url(#a)">
    <path d="M31.9972 2.70923c16.1481 0 29.2879 13.13977 29.2879 29.28797 0 16.1481-13.1398 29.2879-29.2879 29.2879-16.1482 0-29.28797-13.1341-29.28797-29.2879S15.849 2.70923 31.9972 2.70923Zm0-2.70923C14.3251 0 0 14.3251 0 31.9972s14.3251 31.9972 31.9972 31.9972 31.9972-14.3251 31.9972-31.9972S49.6693 0 31.9972 0Z"/>
    <path d="M31.9972 19.1509c.7388 0 1.3377-.5989 1.3377-1.3377 0-.7388-.5989-1.3377-1.3377-1.3377-.7388 0-1.3377.5989-1.3377 1.3377 0 .7388.5989 1.3377 1.3377 1.3377Z"/>
    <path d="M41.79 27.606v-9.7928c0-5.4072-4.3856-9.79275-9.7928-9.79275s-9.7927 4.38555-9.7927 9.79275v9.7928H41.79Zm-9.7928-16.2611c3.5728 0 6.4683 2.8955 6.4683 6.4683s-2.8955 6.4683-6.4683 6.4683-6.4683-2.8955-6.4683-6.4683 2.8955-6.4683 6.4683-6.4683ZM26.0199 48.4558h-6.6941l12.6713 7.5237 12.6713-7.5237H37.98V41.773H26.24l-.2201 6.6828ZM22.2045 33.1317v2.0827c0 .5701.4628 1.0272 1.0272 1.0272h4.3291v-1.5578h8.5511v1.5578h4.6508c.5701 0 1.0273-.4628 1.0273-1.0272v-2.0827H22.2045Z"/>
  </g>
  <defs>
    <clipPath id="a">
      <path fill="#fff" d="M0 0h64v64H0z"/>
    </clipPath>
  </defs>
</svg>
