<svg xmlns="http://www.w3.org/2000/svg" fill="none" width="64" height="64" viewBox="0 0 64 64">
  <g fill="currentColor" clip-path="url(#a)">
    <path d="M31.9972 2.70923c16.1481 0 29.2879 13.13977 29.2879 29.28797 0 16.1481-13.1398 29.2879-29.2879 29.2879-16.1482 0-29.28797-13.1341-29.28797-29.2879S15.849 2.70923 31.9972 2.70923Zm0-2.70923C14.3251 0 0 14.3251 0 31.9972s14.3251 31.9972 31.9972 31.9972 31.9972-14.3251 31.9972-31.9972S49.6693 0 31.9972 0Z"/>
    <path d="M31.8392 12.5641c0-2.0602 1.3546-3.79296 3.2172-4.40818-.4572-.15239-.9369-.25399-1.4449-.25399-2.5681 0-4.6622 2.08837-4.6622 4.66217 0 2.5737 2.0884 4.6621 4.6622 4.6621.508 0 .9877-.1016 1.4449-.254-1.8569-.6152-3.2172-2.348-3.2172-4.4081ZM51.3175 17.8358c-4.363 5.9434-11.3788 7.7664-19.3202 7.7664-7.9415 0-14.9573-1.823-19.3203-7.7664-2.91804 3.9735-4.66211 8.8614-4.66211 14.167 0 13.247 10.73531 23.9824 23.98241 23.9824 13.247 0 23.9823-10.7354 23.9823-23.9824 0-5.3056-1.7441-10.1935-4.6621-14.167Zm-10.566 29.1299c0 .508-.4121.92-.92.92h-4.1598v-1.3885H28.035v1.3885h-3.8663c-.508 0-.92-.412-.92-.92V36.3545c0-4.8314 3.9171-8.7485 8.7486-8.7485 4.8314 0 8.7485 3.9171 8.7485 8.7485v10.6112h.0057Z"/>
    <path d="M31.9972 30.5692c-3.1946 0-5.7797 2.585-5.7797 5.7797 0 3.1946 2.5851 5.7797 5.7797 5.7797 3.1947 0 5.7797-2.5851 5.7797-5.7797 0-3.1947-2.585-5.7797-5.7797-5.7797Zm0 7.1682c-.7394 0-1.3377-.5983-1.3377-1.3377 0-.7394.5983-1.3377 1.3377-1.3377.7394 0 1.3377.5983 1.3377 1.3377 0 .7394-.5983 1.3377-1.3377 1.3377Z"/>
  </g>
  <defs>
    <clipPath id="a">
      <path fill="#fff" d="M0 0h64v64H0z"/>
    </clipPath>
  </defs>
</svg>
