<svg xmlns="http://www.w3.org/2000/svg" fill="none" width="64" height="64" viewBox="0 0 64 64">
  <g fill="currentColor" clip-path="url(#a)">
    <path d="M31.9972 2.70923c16.1481 0 29.2879 13.13977 29.2879 29.28797 0 16.1481-13.1398 29.2879-29.2879 29.2879-16.1482 0-29.28797-13.1341-29.28797-29.2879S15.849 2.70923 31.9972 2.70923Zm0-2.70923C14.3251 0 0 14.3251 0 31.9972s14.3251 31.9972 31.9972 31.9972 31.9972-14.3251 31.9972-31.9972S49.6693 0 31.9972 0Z"/>
    <path d="M18.2535 28.78h-2.681l4.0921-5.3451 4.0921 5.3451h-2.6811v12.5019h2.6811l-4.0921 5.3451-4.0921-5.3451h2.681V28.78ZM29.6549 17.3786h11.4578v-2.681l5.3395 4.0921-5.3395 4.092v-2.6753H29.6549v2.6753l-5.3451-4.092 5.3451-4.0921v2.681ZM48.6929 14.6976h-1.6877v8.1841h1.6877v-8.1841ZM23.7567 47.1802h-8.1842v1.6876h8.1842v-1.6876ZM22.069 21.1941v-6.4965h1.6877v8.1841h-8.1842v-1.6876h6.4965ZM35.7619 35.6095c.7388 0 1.3377-.5989 1.3377-1.3377 0-.7388-.5989-1.3377-1.3377-1.3377-.7388 0-1.3377.5989-1.3377 1.3377 0 .7388.5989 1.3377 1.3377 1.3377Z"/>
    <path d="M35.762 25.4724c-4.8315 0-8.7486 3.9171-8.7486 8.7486v10.6112c0 .508.4121.92.92.92h3.8663v-1.3885h7.6367v1.3885h4.1598c.508 0 .92-.412.92-.92V34.221c0-4.8315-3.9171-8.7486-8.7486-8.7486h-.0056Zm0 2.9689c3.1946 0 5.7797 2.5851 5.7797 5.7797s-2.5851 5.7797-5.7797 5.7797-5.7797-2.5907-5.7797-5.7797 2.5851-5.7797 5.7797-5.7797Z"/>
  </g>
  <defs>
    <clipPath id="a">
      <path fill="#fff" d="M0 0h64v64H0z"/>
    </clipPath>
  </defs>
</svg>
