<svg xmlns="http://www.w3.org/2000/svg" fill="none" width="64" height="64" viewBox="0 0 64 64">
  <g fill="currentColor" clip-path="url(#a)">
    <path d="M31.9972 2.70923c16.1481 0 29.2879 13.13977 29.2879 29.28797 0 16.1481-13.1398 29.2879-29.2879 29.2879-16.1482 0-29.28797-13.1341-29.28797-29.2879S15.849 2.70923 31.9972 2.70923Zm0-2.70923C14.3251 0 0 14.3251 0 31.9972s14.3251 31.9972 31.9972 31.9972 31.9972-14.3251 31.9972-31.9972S49.6693 0 31.9972 0Z"/>
    <path d="m38.9283 13.9469-3.5841.8974 1.5465 1.9247-2.444-.3781.3782 2.4439-1.9303-1.5465-.8975 2.9463-.8974-2.9463-1.9247 1.5465.3782-2.4439-2.444.3781 1.5465-1.9247-3.584-.8974 3.584-.8974-1.5465-1.9303 2.444.3781-.3782-2.44394 1.9247 1.54654.8974-2.30286.8975 2.30286 1.9303-1.54654-.3782 2.44394 2.444-.3781-1.5465 1.9303 3.5841.8974ZM20.7455 28.9211c2.1289-4.0409 6.3664-6.8003 11.2488-6.8013 4.8881.001 9.1312 2.7577 11.2608 6.8013h8.0397v-1.0724l2.2069 2.2069-2.2069 2.2069v-1.0724h-7.1129c.2448.8187.4095 1.6722.4848 2.5512h6.6281v-1.0725l2.2069 2.2069-2.2069 2.2069v-1.0724h-6.5812v2.6246h6.5812v-1.0724l2.2069 2.2069-2.2069 2.2069v-1.0724h-6.5812v9.3638c0 .7394-.5983 1.3377-1.3377 1.3377h-6.045v-2.0207H26.2287v2.0207h-5.6216c-.7338 0-1.3321-.5983-1.3321-1.3377v-9.3638h-8.9743v-2.269h22.0577v-1.0724l2.2069 2.2069-2.2069 2.2069v-1.0724h-6.1538c1.5049 1.446 3.5385 2.3423 5.7925 2.3423 4.6396 0 8.4043-3.759 8.4043-8.4042 0-4.6452-3.7647-8.4043-8.4043-8.4043-2.3247 0-4.4251.9537-5.9449 2.4835h6.3062v-1.0724l2.2069 2.2069-2.2069 2.2069v-1.0724H10.3007v-2.269h10.4448ZM31.9943 22.1198h.0028-.0056.0028Z"/>
    <path d="M32.3584 33.7413H10.3007v2.2689h22.0577v1.0724l2.2069-2.2069-2.2069-2.2069v1.0725Z"/>
  </g>
  <defs>
    <clipPath id="a">
      <path fill="#fff" d="M0 0h64v64H0z"/>
    </clipPath>
  </defs>
</svg>
