<svg xmlns="http://www.w3.org/2000/svg" fill="none" width="64" height="64" viewBox="0 0 64 64">
  <g fill="currentColor" clip-path="url(#a)">
    <path d="M31.9972 2.70923c16.1481 0 29.2879 13.13977 29.2879 29.28797 0 16.1481-13.1398 29.2879-29.2879 29.2879-16.1482 0-29.28797-13.1341-29.28797-29.2879S15.849 2.70923 31.9972 2.70923Zm0-2.70923C14.3251 0 0 14.3251 0 31.9972s14.3251 31.9972 31.9972 31.9972 31.9972-14.3251 31.9972-31.9972S49.6693 0 31.9972 0Z"/>
    <path d="M45.8765 26.6239h-7.6141c2.8729-1.7102 4.7637-4.6622 4.7637-8.472 0-6.1635-4.9387-10.11451-11.0288-10.11451-6.0902 0-11.0289 3.94531-11.0289 10.11451 0 3.8098 1.8909 6.7618 4.7638 8.472h-7.6141l-3.5502 22.0689H49.421l-3.5502-22.0689h.0057ZM32.0029 13.0946c3.0479 0 5.5144 1.9755 5.5144 5.0573 0 3.0817-2.4665 5.0572-5.5144 5.0572-3.0479 0-5.5144-1.9755-5.5144-5.0572 0-3.0818 2.4665-5.0573 5.5144-5.0573Z"/>
  </g>
  <defs>
    <clipPath id="a">
      <path fill="#fff" d="M0 0h64v64H0z"/>
    </clipPath>
  </defs>
</svg>
