<svg xmlns="http://www.w3.org/2000/svg" fill="none" width="24" height="24" viewBox="0 0 256 256">
  <path fill="currentColor" d="M253.495 63.184c-3.142-3.14-7.33-5.235-11.519-5.235h-109.95c-7.33 0-14.66 6.283-14.66 14.66 0 8.377 6.282 14.66 14.66 14.66h91.102l-9.425 31.414-7.33 23.038-6.283 20.943h-94.243L79.668 45.383c-1.047-3.142-3.141-6.283-6.283-8.377L21.028 2.45C14.745-1.74 6.368-.692 2.179 6.638c-4.188 7.33-2.094 15.708 4.189 19.896L53.489 57.95l27.226 121.469c1.047 6.283 7.33 11.519 13.613 11.519h116.234c6.283 0 11.518-4.189 13.613-10.472L255.589 75.75c1.047-4.188 0-9.424-2.094-12.566ZM103.753 242.248c12.723 0 23.038-10.314 23.038-23.037 0-12.723-10.315-23.038-23.038-23.038s-23.037 10.315-23.037 23.038 10.314 23.037 23.037 23.037Zm98.432-45.033c-12.566 0-23.037 10.471-23.037 23.037 0 12.566 10.471 23.037 23.037 23.037 12.566 0 23.037-10.471 23.037-23.037 0-13.613-10.471-23.037-23.037-23.037Z"/>
  <path fill="currentColor" d="M155.063 98.774c-4.189 0-7.33 3.141-7.33 7.33v11.518h-11.519c-4.188 0-7.33 3.142-7.33 7.33 0 4.189 3.142 7.33 7.33 7.33h11.519v11.519c0 4.189 3.141 7.33 7.33 7.33s7.33-3.141 7.33-7.33v-11.519h11.519c4.188 0 7.33-3.141 7.33-7.33 0-4.188-3.142-7.33-7.33-7.33h-11.519v-11.518c0-4.189-3.141-7.33-7.33-7.33Z"/>
</svg>
