<svg xmlns="http://www.w3.org/2000/svg" fill="none" width="24" height="24" viewBox="0 0 24 24">
  <path fill="currentColor" fill-rule="evenodd" d="m12.586 9 3 3-3 3 .707.707L17 12l-3.707-3.707-.707.707Z" clip-rule="evenodd"/>
  <path fill="currentColor" fill-rule="evenodd" d="M15.293 11.5h-8.5v1h8.5v-1Z" clip-rule="evenodd"/>
  <path fill="currentColor" fill-rule="evenodd" d="M16.793 12a.5.5 0 0 0-.5-.5h-1.5a.5.5 0 1 0 0 1h1.5a.5.5 0 0 0 .5-.5Z" clip-rule="evenodd"/>
  <path fill="currentColor" fill-rule="evenodd" d="M12 2.5a9.5 9.5 0 1 0 0 19 9.5 9.5 0 0 0 0-19ZM1.5 12C1.5 6.201 6.201 1.5 12 1.5S22.5 6.201 22.5 12 17.799 22.5 12 22.5 1.5 17.799 1.5 12Z" clip-rule="evenodd"/>
</svg>
