<svg xmlns="http://www.w3.org/2000/svg" fill="none" width="24" height="24" viewBox="0 0 24 24">
  <path fill="currentColor" fill-rule="evenodd" d="m11.207 9-3 3 3 3-.707.707L6.793 12 10.5 8.293l.707.707Z" clip-rule="evenodd"/>
  <path fill="currentColor" fill-rule="evenodd" d="M8.5 11.5H17v1H8.5v-1Z" clip-rule="evenodd"/>
  <path fill="currentColor" fill-rule="evenodd" d="M7 12a.5.5 0 0 1 .5-.5H9a.5.5 0 0 1 0 1H7.5A.5.5 0 0 1 7 12Z" clip-rule="evenodd"/>
  <path fill="currentColor" fill-rule="evenodd" d="M12 2.5a9.5 9.5 0 1 0 0 19 9.5 9.5 0 0 0 0-19ZM1.5 12C1.5 6.201 6.201 1.5 12 1.5S22.5 6.201 22.5 12 17.799 22.5 12 22.5 1.5 17.799 1.5 12Z" clip-rule="evenodd"/>
</svg>
