<svg xmlns="http://www.w3.org/2000/svg" fill="none" width="24" height="24" viewBox="0 0 24 24">
  <path fill="currentColor" fill-rule="evenodd" d="m9 12.793 3 3 3-3 .707.707L12 17.207 8.293 13.5 9 12.793Z" clip-rule="evenodd"/>
  <path fill="currentColor" fill-rule="evenodd" d="M12.5 7v8.5h-1V7h1Z" clip-rule="evenodd"/>
  <path fill="currentColor" fill-rule="evenodd" d="M11.5 16.5V15h1v1.5h-1Z" clip-rule="evenodd"/>
  <path fill="currentColor" fill-rule="evenodd" d="M12 2.5a9.5 9.5 0 1 0 0 19 9.5 9.5 0 0 0 0-19ZM1.5 12C1.5 6.201 6.201 1.5 12 1.5S22.5 6.201 22.5 12 17.799 22.5 12 22.5 1.5 17.799 1.5 12Z" clip-rule="evenodd"/>
</svg>
