<svg xmlns="http://www.w3.org/2000/svg" fill="none" width="24" height="24" viewBox="0 0 24 24">
  <path fill="currentColor" fill-rule="evenodd" d="m12 6.793 3.707 3.707-.707.707-3-3-3 3-.707-.707L12 6.793Z" clip-rule="evenodd"/>
  <path fill="currentColor" fill-rule="evenodd" d="M12.5 8.5V17h-1V8.5h1Z" clip-rule="evenodd"/>
  <path fill="currentColor" fill-rule="evenodd" d="M12.5 7v2.5h-1V7h1Z" clip-rule="evenodd"/>
  <path fill="currentColor" fill-rule="evenodd" d="M12 2.5a9.5 9.5 0 1 0 0 19 9.5 9.5 0 0 0 0-19ZM1.5 12C1.5 6.201 6.201 1.5 12 1.5S22.5 6.201 22.5 12 17.799 22.5 12 22.5 1.5 17.799 1.5 12Z" clip-rule="evenodd"/>
</svg>
