<svg xmlns="http://www.w3.org/2000/svg" fill="none" width="24" height="24" viewBox="0 0 24 24">
  <path fill="currentColor" fill-rule="evenodd" d="M8.464 7.757 12 11.293l3.536-3.536.707.707L12.707 12l3.536 3.536-.707.707L12 12.707l-3.536 3.536-.707-.707L11.293 12 7.757 8.464l.707-.707Z" clip-rule="evenodd"/>
  <path fill="currentColor" fill-rule="evenodd" d="M18.718 5.282a9.5 9.5 0 0 0-13.436 0 9.5 9.5 0 0 0 0 13.436 9.5 9.5 0 0 0 13.436 0 9.5 9.5 0 0 0 0-13.436ZM4.575 4.575c4.1-4.1 10.75-4.1 14.85 0s4.1 10.75 0 14.85-10.75 4.1-14.85 0-4.1-10.75 0-14.85Z" clip-rule="evenodd"/>
</svg>
