<svg xmlns="http://www.w3.org/2000/svg" fill="none" width="24" height="24" viewBox="0 0 24 24">
  <path fill="currentColor" fill-rule="evenodd" d="M9 4.5a1.5 1.5 0 1 0 0 3 1.5 1.5 0 0 0 0-3ZM6.5 6a2.5 2.5 0 1 1 5 0 2.5 2.5 0 0 1-5 0Z" clip-rule="evenodd"/>
  <path fill="currentColor" fill-rule="evenodd" d="M3.5 5.5h4v1h-4v-1Zm7 0h10v1h-10v-1ZM9 16.5a1.5 1.5 0 1 0 0 3 1.5 1.5 0 0 0 0-3ZM6.5 18a2.5 2.5 0 1 1 5 0 2.5 2.5 0 0 1-5 0Z" clip-rule="evenodd"/>
  <path fill="currentColor" fill-rule="evenodd" d="M3.5 17.5h4v1h-4v-1Zm7 0h10v1h-10v-1Zm4.5-7a1.5 1.5 0 1 0 0 3 1.5 1.5 0 0 0 0-3ZM12.5 12a2.5 2.5 0 1 1 5 0 2.5 2.5 0 0 1-5 0Z" clip-rule="evenodd"/>
  <path fill="currentColor" fill-rule="evenodd" d="M3.5 11.5h10v1h-10v-1Zm13 0h4v1h-4v-1Z" clip-rule="evenodd"/>
</svg>
