<svg xmlns="http://www.w3.org/2000/svg" fill="none" width="24" height="24" viewBox="0 0 24 24">
  <path fill="currentColor" fill-rule="evenodd" d="M2.571 12a12.165 12.165 0 0 0 2.143 2.633C6.272 16.07 8.656 17.5 12 17.5c3.344 0 5.728-1.43 7.286-2.867.78-.72 1.35-1.441 1.725-1.98.187-.27.325-.493.415-.647l.003-.006-.003-.006a9.828 9.828 0 0 0-.415-.646 12.16 12.16 0 0 0-1.725-1.98C17.728 7.928 15.344 6.5 12 6.5c-3.344 0-5.728 1.43-7.286 2.867-.78.72-1.35 1.441-1.725 1.98A9.84 9.84 0 0 0 2.57 12Zm19.43 0 .446-.224-.001-.002-.003-.005-.008-.017a5.741 5.741 0 0 0-.146-.262c-.101-.174-.253-.42-.456-.713a13.168 13.168 0 0 0-1.869-2.144C18.272 7.07 15.656 5.5 12 5.5c-3.656 0-6.272 1.57-7.964 3.133-.845.78-1.462 1.559-1.868 2.144a10.774 10.774 0 0 0-.573.918 4.844 4.844 0 0 0-.03.057l-.008.017-.003.005v.001s-.001.001.446.225l-.447-.224L1.44 12l.112.224L2 12l-.447.224.001.002.003.005.008.017a4.844 4.844 0 0 0 .146.262c.101.174.253.42.456.713a13.164 13.164 0 0 0 1.869 2.144C5.728 16.93 8.344 18.5 12 18.5c3.656 0 6.272-1.57 7.964-3.133.845-.78 1.462-1.559 1.869-2.144a10.804 10.804 0 0 0 .572-.918l.03-.057.008-.017.003-.005v-.001s.001-.001-.446-.225Zm0 0 .446.224.112-.224-.112-.224L22 12Z" clip-rule="evenodd"/>
  <path fill="currentColor" fill-rule="evenodd" d="M12 9.5a2.5 2.5 0 1 0 0 5 2.5 2.5 0 0 0 0-5ZM8.5 12a3.5 3.5 0 1 1 7 0 3.5 3.5 0 0 1-7 0Z" clip-rule="evenodd"/>
</svg>
