<svg xmlns="http://www.w3.org/2000/svg" fill="none" width="24" height="24" viewBox="0 0 24 24">
  <path fill="currentColor" fill-rule="evenodd" d="M12 2.5a9.5 9.5 0 1 0 0 19 9.5 9.5 0 0 0 0-19ZM1.5 12C1.5 6.201 6.201 1.5 12 1.5S22.5 6.201 22.5 12 17.799 22.5 12 22.5 1.5 17.799 1.5 12Z" clip-rule="evenodd"/>
  <path fill="currentColor" fill-rule="evenodd" d="m12 1.324.336.306C15.126 4.166 16.5 7.644 16.5 12c0 4.356-1.374 7.834-4.164 10.37l-.336.306-.336-.306C8.874 19.834 7.5 16.356 7.5 12c0-4.356 1.374-7.834 4.164-10.37L12 1.324Zm0 1.364C9.679 4.972 8.5 8.058 8.5 12c0 3.943 1.179 7.028 3.5 9.312 2.321-2.284 3.5-5.37 3.5-9.312 0-3.943-1.179-7.028-3.5-9.312Z" clip-rule="evenodd"/>
  <path fill="currentColor" fill-rule="evenodd" d="M2 8.5h20v1H2v-1Zm0 6h20v1H2v-1Z" clip-rule="evenodd"/>
</svg>
