<svg xmlns="http://www.w3.org/2000/svg" fill="none" width="24" height="24" viewBox="0 0 24 24">
  <path fill="currentColor" d="M8.687 4.055c-.851.04-1.433.177-1.94.376-.527.205-.973.48-1.416.925a3.921 3.921 0 0 0-.92 1.419c-.197.509-.33 1.09-.368 1.942-.038.854-.046 1.126-.042 3.298.004 2.172.014 2.445.054 3.299.041.85.177 1.432.376 1.94.205.526.48.972.925 1.415.445.444.892.717 1.42.92.508.197 1.09.331 1.941.368.854.038 1.126.046 3.298.042 2.173-.004 2.445-.014 3.299-.054.85-.04 1.432-.177 1.94-.376.526-.206.972-.48 1.415-.925.444-.445.717-.892.92-1.419.197-.509.331-1.09.368-1.942.037-.853.046-1.126.042-3.298-.004-2.173-.014-2.445-.054-3.298-.04-.851-.177-1.432-.376-1.94a3.925 3.925 0 0 0-.925-1.416 3.916 3.916 0 0 0-1.419-.92c-.509-.197-1.09-.331-1.942-.368-.853-.038-1.126-.046-3.298-.042-2.172.004-2.445.013-3.298.054m.093 14.462c-.78-.034-1.203-.163-1.486-.272a2.496 2.496 0 0 1-.92-.596 2.486 2.486 0 0 1-.6-.919c-.11-.282-.242-.705-.279-1.485-.04-.843-.049-1.096-.053-3.232-.004-2.136.004-2.39.04-3.233.034-.78.165-1.204.273-1.485.145-.375.318-.64.597-.922.28-.28.545-.454.919-.6.282-.11.705-.24 1.484-.278.844-.04 1.097-.048 3.232-.052 2.136-.005 2.39.003 3.233.04.78.034 1.204.163 1.486.272.374.145.64.317.92.597.281.28.455.545.601.919.11.281.241.705.278 1.484.04.844.05 1.097.053 3.232.004 2.137-.003 2.39-.04 3.233-.034.78-.164 1.204-.273 1.486-.144.374-.317.64-.597.921-.279.28-.545.454-.918.6-.282.11-.705.241-1.485.278-.843.04-1.096.05-3.232.053-2.136.004-2.389-.004-3.233-.04m6.522-10.794a.96.96 0 1 0 1.92-.004.96.96 0 0 0-1.92.004m-7.41 4.284a4.107 4.107 0 1 0 8.215-.016 4.107 4.107 0 0 0-8.215.016Zm1.441-.003a2.667 2.667 0 1 1 5.334-.01 2.667 2.667 0 0 1-5.334.01"/>
</svg>
