<svg xmlns="http://www.w3.org/2000/svg" fill="none" width="24" height="24" viewBox="0 0 24 24">
  <path fill="currentColor" fill-opacity=".85" d="M13 2a1 1 0 1 0-2 0v2a1 1 0 1 0 2 0V2Zm4.866 1.84a1 1 0 1 0-1.732-1l-1 1.732a1 1 0 1 0 1.732 1l1-1.732Zm3.66 2.66a1 1 0 0 1-.366 1.366l-1.732 1a1 1 0 1 1-1-1.732l1.732-1a1 1 0 0 1 1.366.366ZM20 11a1 1 0 1 0 0 2h2a1 1 0 1 0 0-2h-2Zm-1.938 4.5a1 1 0 0 1 1.366-.366l1.732 1a1 1 0 0 1-1 1.732l-1.732-1a1 1 0 0 1-.366-1.366Zm-1.196 2.928a1 1 0 0 0-1.732 1l1 1.732a1 1 0 0 0 1.732-1l-1-1.732ZM12 19a1 1 0 0 1 1 1v2a1 1 0 1 1-2 0v-2a1 1 0 0 1 1-1Zm-3.134.428a1 1 0 1 0-1.732-1l-1 1.732a1 1 0 1 0 1.732 1l1-1.732ZM5.938 15.5a1 1 0 0 1-.366 1.366l-1.732 1a1 1 0 1 1-1-1.732l1.732-1a1 1 0 0 1 1.366.366ZM2 11a1 1 0 1 0 0 2h2a1 1 0 1 0 0-2H2Zm.474-4.5a1 1 0 0 1 1.366-.366l1.732 1a1 1 0 1 1-1 1.732l-1.732-1A1 1 0 0 1 2.474 6.5Zm5.392-3.66a1 1 0 1 0-1.732 1l1 1.732a1 1 0 1 0 1.732-1l-1-1.732Z"/>
</svg>
