<svg xmlns="http://www.w3.org/2000/svg" fill="none" width="24" height="24" viewBox="0 0 24 24">
  <path fill="currentColor" fill-rule="evenodd" d="M5.5 9a6.5 6.5 0 0 1 13 0c0 3.982-2.095 8.1-6.138 12.345l-.362.38-.362-.38C7.595 17.1 5.5 12.982 5.5 9ZM12 3.5A5.5 5.5 0 0 0 6.5 9c0 3.506 1.789 7.26 5.5 11.27 3.711-4.01 5.5-7.764 5.5-11.27A5.5 5.5 0 0 0 12 3.5Z" clip-rule="evenodd"/>
  <path fill="currentColor" fill-rule="evenodd" d="M12 8.5a.5.5 0 1 0 0 1 .5.5 0 0 0 0-1Zm-1.5.5a1.5 1.5 0 1 1 3 0 1.5 1.5 0 0 1-3 0Z" clip-rule="evenodd"/>
</svg>
