<svg xmlns="http://www.w3.org/2000/svg" fill="none" viewBox="0 0 32 32">
  <path fill="currentColor" fill-rule="evenodd" d="M2 6h22.6667v16.6667c0 .7861.196 1.2532.4714 1.5286.2753.2753.7424.4714 1.5286.4714.7861 0 1.2532-.1961 1.5286-.4714.2753-.2754.4714-.7425.4714-1.5286V6H30v16.6667c0 .9916-.2484 1.8578-.8619 2.4714-.6136.6135-1.4798.8619-2.4714.8619H6.66667c-1.4361 0-2.63562-.3595-3.47141-1.1953C2.35948 23.969 2 22.7694 2 21.3333V6Zm21.8225 18.6667c-.3436-.5551-.4892-1.2408-.4892-2V7.33333H3.33333V21.3333c0 1.2306.30719 2.0311.80474 2.5286.49755.4976 1.29803.8048 2.5286.8048H23.8225Zm-16.48917-12H19.3333V14H7.33333v-1.3333Zm0 5.3333H10v1.3333H7.33333V18ZM14 18h5.3333v1.3333H14V18Z" clip-rule="evenodd"/>
</svg>
