<svg xmlns="http://www.w3.org/2000/svg" fill="none" width="24" height="24" viewBox="0 0 24 24">
  <path fill="currentColor" fill-rule="evenodd" d="M9 18.5a.5.5 0 1 0 0 1 .5.5 0 0 0 0-1Zm-1.5.5a1.5 1.5 0 1 1 3 0 1.5 1.5 0 0 1-3 0Zm10.5-.5a.5.5 0 1 0 0 1 .5.5 0 0 0 0-1Zm-1.5.5a1.5 1.5 0 1 1 3 0 1.5 1.5 0 0 1-3 0ZM5.41 5.5h16.18l-1.666 10H7.076L5.41 5.5Zm1.18 1 1.334 8h11.152l1.334-8H6.59Z" clip-rule="evenodd"/>
  <path fill="currentColor" fill-rule="evenodd" d="M2.5 5.5h4v1h-4v-1Z" clip-rule="evenodd"/>
</svg>
