<svg xmlns="http://www.w3.org/2000/svg" fill="none" width="24" height="24" viewBox="0 0 24 24">
  <path fill="currentColor" fill-rule="evenodd" d="M9.39 7.562C8.825 8.27 8.5 9.387 8.5 11c0 2.378.706 3.516 1.26 4.18.125.15.245.28.36.403l.053.057c.122.131.259.28.357.433.103.16.202.383.167.651-.034.261-.181.467-.343.63-.383.382-.973.784-1.736 1.208-.77.428-1.745.894-2.921 1.398l-.46.197-.394-.92.46-.197c1.158-.496 2.1-.947 2.83-1.352.736-.41 1.23-.758 1.513-1.042a.681.681 0 0 0 .038-.04 2.605 2.605 0 0 0-.244-.285l-.05-.055a10.47 10.47 0 0 1-.4-.446C8.295 14.984 7.5 13.622 7.5 11c0-1.72.342-3.103 1.11-4.062C9.394 5.957 10.556 5.5 12 5.5c1.444 0 2.606.457 3.39 1.438.768.96 1.11 2.342 1.11 4.062 0 2.622-.794 3.984-1.49 4.82-.146.174-.285.324-.4.447l-.05.054c-.127.136-.2.22-.244.285.01.011.022.025.038.04.284.284.777.633 1.514 1.042.73.405 1.671.856 2.829 1.352l.46.197-.394.92-.46-.197c-1.176-.504-2.15-.97-2.92-1.398-.764-.424-1.354-.826-1.737-1.208-.162-.163-.31-.369-.343-.63a.963.963 0 0 1 .167-.65c.098-.154.235-.303.357-.434l.053-.057c.115-.124.235-.252.36-.403.554-.664 1.26-1.802 1.26-4.18 0-1.613-.325-2.73-.89-3.438C14.06 6.877 13.223 6.5 12 6.5c-1.223 0-2.061.377-2.61 1.062Zm4.901 9.088Z" clip-rule="evenodd"/>
  <path fill="currentColor" fill-rule="evenodd" d="M12 2.5a9.5 9.5 0 1 0 0 19 9.5 9.5 0 0 0 0-19ZM1.5 12C1.5 6.201 6.201 1.5 12 1.5S22.5 6.201 22.5 12 17.799 22.5 12 22.5 1.5 17.799 1.5 12Z" clip-rule="evenodd"/>
</svg>
