<svg width="64" height="64" viewBox="0 0 64 64" fill="none" xmlns="http://www.w3.org/2000/svg">
<g clip-path="url(#clip0_15211_845)">
<path d="M31.9972 2.70923C48.1453 2.70923 61.2851 15.849 61.2851 31.9972C61.2851 48.1453 48.1453 61.2851 31.9972 61.2851C15.849 61.2851 2.70923 48.151 2.70923 31.9972C2.70923 15.8434 15.849 2.70923 31.9972 2.70923ZM31.9972 0C14.3251 0 0 14.3251 0 31.9972C0 49.6693 14.3251 63.9944 31.9972 63.9944C49.6693 63.9944 63.9944 49.6693 63.9944 31.9972C63.9944 14.3251 49.6693 0 31.9972 0Z" fill="black"/>
<path d="M31.9972 28.2155C33.2753 28.2155 34.3114 27.1795 34.3114 25.9014C34.3114 24.6233 33.2753 23.5873 31.9972 23.5873C30.7192 23.5873 29.6831 24.6233 29.6831 25.9014C29.6831 27.1795 30.7192 28.2155 31.9972 28.2155Z" fill="black"/>
<path d="M31.9973 7.90193C22.0578 7.90193 13.9978 15.9619 13.9978 25.9014V47.7277C13.9978 48.7719 14.8444 49.6185 15.8886 49.6185H23.847V46.7625H39.5549V49.6185H48.1059C49.1501 49.6185 49.9967 48.7719 49.9967 47.7277V25.9014C49.9967 15.9619 41.9368 7.90193 31.9973 7.90193ZM31.9973 37.7882C25.9579 37.7882 21.0249 33.2671 20.2629 27.431H23.0568V30.5297L29.1074 25.8958L23.0568 21.2618V24.2984H20.2686C21.0531 18.4962 25.9749 14.009 31.9973 14.009C38.0197 14.009 42.9358 18.4962 43.726 24.2984H40.9377V21.2618L34.8871 25.8958L40.9377 30.5297V27.431H43.7316C42.9697 33.2671 38.0366 37.7882 31.9973 37.7882Z" fill="black"/>
</g>
<defs>
<clipPath id="clip0_15211_845">
<rect width="64" height="64" fill="white"/>
</clipPath>
</defs>
</svg>
