<svg width="64" height="64" viewBox="0 0 64 64" fill="none" xmlns="http://www.w3.org/2000/svg">
<g clip-path="url(#clip0_15211_853)">
<path d="M31.9972 2.70923C48.1453 2.70923 61.2851 15.849 61.2851 31.9972C61.2851 48.1453 48.1453 61.2851 31.9972 61.2851C15.849 61.2851 2.70923 48.151 2.70923 31.9972C2.70923 15.8434 15.849 2.70923 31.9972 2.70923ZM31.9972 0C14.3251 0 0 14.3251 0 31.9972C0 49.6693 14.3251 63.9944 31.9972 63.9944C49.6693 63.9944 63.9944 49.6693 63.9944 31.9972C63.9944 14.3251 49.6693 0 31.9972 0Z" fill="black"/>
<path d="M36.5521 30.603H47.8857V27.9503L53.1687 31.9972L47.8857 36.0497V33.3969H36.5521V36.0497L31.2634 31.9972L36.5521 27.9503V30.603Z" fill="black"/>
<path d="M53.716 36.0497H55.3867V27.9503H53.716V36.0497Z" fill="black"/>
<path d="M28.1872 38.9622C29.8892 38.9622 31.269 35.8438 31.269 31.9972C31.269 28.1505 29.8892 25.0322 28.1872 25.0322C26.4852 25.0322 25.1055 28.1505 25.1055 31.9972C25.1055 35.8438 26.4852 38.9622 28.1872 38.9622Z" fill="black"/>
<path d="M30.8685 18.0446L29.4461 16.0127L8.0601 30.9812C7.72709 31.2126 7.52954 31.5908 7.52954 31.9972C7.52954 32.4036 7.72709 32.7761 8.0601 33.0131L29.4461 47.9817L30.8685 45.9497L10.933 31.9972L30.8685 18.039V18.0446Z" fill="black"/>
<path d="M27.1148 45.8764L25.7207 44.9168C28.2155 41.2819 29.587 36.6932 29.587 31.9915C29.587 27.2899 28.2155 22.7011 25.7207 19.0719L27.1148 18.1124C29.8015 22.0238 31.2803 26.9512 31.2803 31.9915C31.2803 37.0318 29.8015 41.9592 27.1148 45.8707V45.8764Z" fill="black"/>
</g>
<defs>
<clipPath id="clip0_15211_853">
<rect width="64" height="64" fill="white"/>
</clipPath>
</defs>
</svg>
