<svg width="64" height="64" viewBox="0 0 64 64" fill="none" xmlns="http://www.w3.org/2000/svg">
<g clip-path="url(#clip0_15211_852)">
<path d="M31.9972 2.70923C48.1453 2.70923 61.2851 15.849 61.2851 31.9972C61.2851 48.1453 48.1453 61.2851 31.9972 61.2851C15.849 61.2851 2.70923 48.151 2.70923 31.9972C2.70923 15.8434 15.849 2.70923 31.9972 2.70923ZM31.9972 0C14.3251 0 0 14.3251 0 31.9972C0 49.6693 14.3251 63.9944 31.9972 63.9944C49.6693 63.9944 63.9944 49.6693 63.9944 31.9972C63.9944 14.3251 49.6693 0 31.9972 0Z" fill="black"/>
<path d="M31.9973 17.1246C40.1984 17.1246 46.8699 23.7961 46.8699 31.9972C46.8699 40.1983 40.1984 46.8697 31.9973 46.8697C23.7963 46.8697 17.1248 40.1983 17.1248 31.9972C17.1248 23.7961 23.7963 17.1246 31.9973 17.1246ZM31.9973 12.6092C21.2902 12.6092 12.6094 21.2901 12.6094 31.9972C12.6094 42.7043 21.2902 51.3851 31.9973 51.3851C42.7044 51.3851 51.3853 42.7043 51.3853 31.9972C51.3853 21.2901 42.7044 12.6092 31.9973 12.6092Z" fill="black"/>
<path d="M46.8254 42.0372L42.0361 46.8265L46.562 51.3524L51.3513 46.5631L46.8254 42.0372Z" fill="black"/>
<path d="M38.2962 30.3265H33.7865V25.7433H30.3717V30.3265H25.7886V33.7412H30.3717V38.2566H33.7865V33.7412H38.2962V30.3265Z" fill="black"/>
</g>
<defs>
<clipPath id="clip0_15211_852">
<rect width="64" height="64" fill="white"/>
</clipPath>
</defs>
</svg>
