<svg width="64" height="64" viewBox="0 0 64 64" fill="none" xmlns="http://www.w3.org/2000/svg">
<g clip-path="url(#clip0_15211_851)">
<path d="M31.9972 2.70923C48.1453 2.70923 61.2851 15.849 61.2851 31.9972C61.2851 48.1453 48.1453 61.2851 31.9972 61.2851C15.849 61.2851 2.70923 48.151 2.70923 31.9972C2.70923 15.8434 15.849 2.70923 31.9972 2.70923ZM31.9972 0C14.3251 0 0 14.3251 0 31.9972C0 49.6693 14.3251 63.9944 31.9972 63.9944C49.6693 63.9944 63.9944 49.6693 63.9944 31.9972C63.9944 14.3251 49.6693 0 31.9972 0Z" fill="black"/>
<path d="M31.9971 19.1509C32.7359 19.1509 33.3348 18.552 33.3348 17.8132C33.3348 17.0744 32.7359 16.4755 31.9971 16.4755C31.2583 16.4755 30.6594 17.0744 30.6594 17.8132C30.6594 18.552 31.2583 19.1509 31.9971 19.1509Z" fill="black"/>
<path d="M41.7901 27.606V17.8132C41.7901 12.406 37.4045 8.02046 31.9973 8.02046C26.5902 8.02046 22.2046 12.406 22.2046 17.8132V27.606H41.7901ZM31.9973 11.3449C35.5701 11.3449 38.4656 14.2404 38.4656 17.8132C38.4656 21.386 35.5701 24.2815 31.9973 24.2815C28.4245 24.2815 25.529 21.386 25.529 17.8132C25.529 14.2404 28.4245 11.3449 31.9973 11.3449Z" fill="black"/>
<path d="M26.02 48.4558H19.3259L31.9972 55.9795L44.6686 48.4558H37.9801V41.773H26.2401L26.02 48.4558Z" fill="black"/>
<path d="M22.2046 33.1317V35.2144C22.2046 35.7845 22.6674 36.2416 23.2318 36.2416H27.561V34.6838H36.112V36.2416H40.7628C41.3329 36.2416 41.7901 35.7788 41.7901 35.2144V33.1317H22.2046Z" fill="black"/>
</g>
<defs>
<clipPath id="clip0_15211_851">
<rect width="64" height="64" fill="white"/>
</clipPath>
</defs>
</svg>
