<svg width="64" height="64" viewBox="0 0 64 64" fill="none" xmlns="http://www.w3.org/2000/svg">
<g clip-path="url(#clip0_15211_850)">
<path d="M31.9972 2.70923C48.1453 2.70923 61.2851 15.849 61.2851 31.9972C61.2851 48.1453 48.1453 61.2851 31.9972 61.2851C15.849 61.2851 2.70923 48.151 2.70923 31.9972C2.70923 15.8434 15.849 2.70923 31.9972 2.70923ZM31.9972 0C14.3251 0 0 14.3251 0 31.9972C0 49.6693 14.3251 63.9944 31.9972 63.9944C49.6693 63.9944 63.9944 49.6693 63.9944 31.9972C63.9944 14.3251 49.6693 0 31.9972 0Z" fill="black"/>
<path d="M31.9972 25.1225C33.1444 25.1225 34.0743 24.1926 34.0743 23.0454C34.0743 21.8983 33.1444 20.9683 31.9972 20.9683C30.8501 20.9683 29.9202 21.8983 29.9202 23.0454C29.9202 24.1926 30.8501 25.1225 31.9972 25.1225Z" fill="black"/>
<path d="M47.1859 38.2341V23.0454C47.1859 14.6581 40.3846 7.85679 31.9972 7.85679C23.6099 7.85679 16.8086 14.6581 16.8086 23.0454V38.2341H47.1859ZM31.9972 13.0156C37.5399 13.0156 42.0327 17.5084 42.0327 23.0454C42.0327 28.5824 37.5399 33.0809 31.9972 33.0809C26.4546 33.0809 21.9674 28.5881 21.9674 23.0454C21.9674 17.5028 26.4602 13.0156 31.9972 13.0156Z" fill="black"/>
<path d="M16.8086 46.8077V50.0362C16.8086 50.9167 17.5198 51.6278 18.4003 51.6278H25.1169V49.2177H38.3752V51.6278H45.5942C46.4747 51.6278 47.1859 50.9167 47.1859 50.0362V46.8077H16.8086Z" fill="black"/>
</g>
<defs>
<clipPath id="clip0_15211_850">
<rect width="64" height="64" fill="white"/>
</clipPath>
</defs>
</svg>
