<svg width="64" height="64" viewBox="0 0 64 64" fill="none" xmlns="http://www.w3.org/2000/svg">
<g clip-path="url(#clip0_15211_849)">
<path d="M31.9972 2.70923C48.1453 2.70923 61.2851 15.849 61.2851 31.9972C61.2851 48.1453 48.1453 61.2851 31.9972 61.2851C15.849 61.2851 2.70923 48.151 2.70923 31.9972C2.70923 15.8434 15.849 2.70923 31.9972 2.70923ZM31.9972 0C14.3251 0 0 14.3251 0 31.9972C0 49.6693 14.3251 63.9944 31.9972 63.9944C49.6693 63.9944 63.9944 49.6693 63.9944 31.9972C63.9944 14.3251 49.6693 0 31.9972 0Z" fill="black"/>
<path d="M31.8393 12.5641C31.8393 10.5039 33.1939 8.77115 35.0565 8.15592C34.5993 8.00353 34.1196 7.90193 33.6116 7.90193C31.0435 7.90193 28.9495 9.9903 28.9495 12.5641C28.9495 15.1378 31.0378 17.2262 33.6116 17.2262C34.1196 17.2262 34.5993 17.1246 35.0565 16.9722C33.1996 16.357 31.8393 14.6242 31.8393 12.5641Z" fill="black"/>
<path d="M51.3175 17.8358C46.9545 23.7792 39.9387 25.6022 31.9973 25.6022C24.0558 25.6022 17.04 23.7792 12.677 17.8358C9.75896 21.8093 8.01489 26.6972 8.01489 32.0028C8.01489 45.2498 18.7502 55.9852 31.9973 55.9852C45.2443 55.9852 55.9796 45.2498 55.9796 32.0028C55.9796 26.6972 54.2355 21.8093 51.3175 17.8358ZM40.7515 46.9657C40.7515 47.4737 40.3394 47.8857 39.8315 47.8857H35.6717V46.4972H28.035V47.8857H24.1687C23.6607 47.8857 23.2487 47.4737 23.2487 46.9657V36.3545C23.2487 31.5231 27.1658 27.606 31.9973 27.606C36.8287 27.606 40.7458 31.5231 40.7458 36.3545V46.9657H40.7515Z" fill="black"/>
<path d="M31.9972 30.5692C28.8026 30.5692 26.2175 33.1542 26.2175 36.3489C26.2175 39.5435 28.8026 42.1286 31.9972 42.1286C35.1919 42.1286 37.7769 39.5435 37.7769 36.3489C37.7769 33.1542 35.1919 30.5692 31.9972 30.5692ZM31.9972 37.7374C31.2578 37.7374 30.6595 37.1391 30.6595 36.3997C30.6595 35.6603 31.2578 35.062 31.9972 35.062C32.7366 35.062 33.3349 35.6603 33.3349 36.3997C33.3349 37.1391 32.7366 37.7374 31.9972 37.7374Z" fill="black"/>
</g>
<defs>
<clipPath id="clip0_15211_849">
<rect width="64" height="64" fill="white"/>
</clipPath>
</defs>
</svg>
