<svg width="64" height="64" viewBox="0 0 64 64" fill="none" xmlns="http://www.w3.org/2000/svg">
<g clip-path="url(#clip0_15211_848)">
<path d="M31.9972 2.70923C48.1453 2.70923 61.2851 15.849 61.2851 31.9972C61.2851 48.1453 48.1453 61.2851 31.9972 61.2851C15.849 61.2851 2.70923 48.151 2.70923 31.9972C2.70923 15.8434 15.849 2.70923 31.9972 2.70923ZM31.9972 0C14.3251 0 0 14.3251 0 31.9972C0 49.6693 14.3251 63.9944 31.9972 63.9944C49.6693 63.9944 63.9944 49.6693 63.9944 31.9972C63.9944 14.3251 49.6693 0 31.9972 0Z" fill="black"/>
<path d="M18.2535 28.78H15.5725L19.6646 23.4349L23.7567 28.78H21.0756V41.2819H23.7567L19.6646 46.627L15.5725 41.2819H18.2535V28.78Z" fill="black"/>
<path d="M29.6549 17.3786H41.1127V14.6976L46.4522 18.7897L41.1127 22.8817V20.2064H29.6549V22.8817L24.3098 18.7897L29.6549 14.6976V17.3786Z" fill="black"/>
<path d="M48.6928 14.6976H47.0051V22.8817H48.6928V14.6976Z" fill="black"/>
<path d="M23.7567 47.1802H15.5725V48.8678H23.7567V47.1802Z" fill="black"/>
<path d="M22.069 21.1941V14.6976H23.7567V22.8817H15.5725V21.1941H22.069Z" fill="black"/>
<path d="M35.762 35.6095C36.5008 35.6095 37.0997 35.0106 37.0997 34.2718C37.0997 33.533 36.5008 32.9341 35.762 32.9341C35.0232 32.9341 34.4243 33.533 34.4243 34.2718C34.4243 35.0106 35.0232 35.6095 35.762 35.6095Z" fill="black"/>
<path d="M35.762 25.4724C30.9305 25.4724 27.0134 29.3895 27.0134 34.221V44.8322C27.0134 45.3402 27.4255 45.7522 27.9334 45.7522H31.7997V44.3637H39.4364V45.7522H43.5962C44.1042 45.7522 44.5162 45.3402 44.5162 44.8322V34.221C44.5162 29.3895 40.5991 25.4724 35.7676 25.4724H35.762ZM35.762 28.4413C38.9566 28.4413 41.5417 31.0264 41.5417 34.221C41.5417 37.4156 38.9566 40.0007 35.762 40.0007C32.5674 40.0007 29.9823 37.41 29.9823 34.221C29.9823 31.032 32.5674 28.4413 35.762 28.4413Z" fill="black"/>
</g>
<defs>
<clipPath id="clip0_15211_848">
<rect width="64" height="64" fill="white"/>
</clipPath>
</defs>
</svg>
