<svg width="64" height="64" viewBox="0 0 64 64" fill="none" xmlns="http://www.w3.org/2000/svg">
<g clip-path="url(#clip0_15211_847)">
<path d="M31.9972 2.70923C48.1453 2.70923 61.2851 15.849 61.2851 31.9972C61.2851 48.1453 48.1453 61.2851 31.9972 61.2851C15.849 61.2851 2.70923 48.151 2.70923 31.9972C2.70923 15.8434 15.849 2.70923 31.9972 2.70923ZM31.9972 0C14.3251 0 0 14.3251 0 31.9972C0 49.6693 14.3251 63.9944 31.9972 63.9944C49.6693 63.9944 63.9944 49.6693 63.9944 31.9972C63.9944 14.3251 49.6693 0 31.9972 0Z" fill="black"/>
<path d="M38.9284 13.9469L35.3443 14.8443L36.8908 16.769L34.4469 16.3909L34.825 18.8348L32.8947 17.2883L31.9973 20.2346L31.0998 17.2883L29.1751 18.8348L29.5533 16.3909L27.1093 16.769L28.6559 14.8443L25.0718 13.9469L28.6559 13.0495L27.1093 11.1192L29.5533 11.4973L29.1751 9.05336L31.0998 10.5999L31.9973 8.29704L32.8947 10.5999L34.825 9.05336L34.4469 11.4973L36.8908 11.1192L35.3443 13.0495L38.9284 13.9469Z" fill="black"/>
<path d="M32.3585 28.9211H10.3008V31.19H32.3585V32.2625L34.5654 30.0556L32.3585 27.8487V28.9211Z" fill="black"/>
<path d="M32.3585 33.7412H10.3008V36.0102H32.3585V37.0826L34.5654 34.8757L32.3585 32.6688V33.7412Z" fill="black"/>
<path d="M32.3585 38.6348H10.3008V40.9038H32.3585V41.9762L34.5654 39.7693L32.3585 37.5624V38.6348Z" fill="black"/>
<path d="M51.2947 32.2625L53.5016 30.0556L51.2947 27.8487V28.9211H41.9253V31.19H51.2947V32.2625Z" fill="black"/>
<path d="M51.2947 33.7412H41.9253V36.0102H51.2947V37.0826L53.5016 34.8757L51.2947 32.6688V33.7412Z" fill="black"/>
<path d="M51.2947 38.6348H41.9253V40.9038H51.2947V41.9762L53.5016 39.7693L51.2947 37.5624V38.6348Z" fill="black"/>
<path d="M31.997 22.1198C26.6689 22.1198 22.1083 25.4047 20.2175 30.0556H25.1054C26.6237 27.8769 29.141 26.4376 31.997 26.4376C36.6366 26.4376 40.4013 30.1967 40.4013 34.8419C40.4013 39.4871 36.6366 43.2461 31.997 43.2461C29.2031 43.2461 26.7479 41.8689 25.2183 39.7749H19.2749V50.2676C19.2749 51.007 19.8732 51.6053 20.6069 51.6053H26.2286V49.5846H37.3308V51.6053H43.3758C44.1152 51.6053 44.7135 51.007 44.7135 50.2676V34.8419C44.7135 27.8148 39.0184 22.1198 31.9914 22.1198H31.997Z" fill="black"/>
</g>
<defs>
<clipPath id="clip0_15211_847">
<rect width="64" height="64" fill="white"/>
</clipPath>
</defs>
</svg>
