<svg width="64" height="64" viewBox="0 0 64 64" fill="none" xmlns="http://www.w3.org/2000/svg">
<g clip-path="url(#clip0_15211_846)">
<path d="M31.9972 2.70923C48.1453 2.70923 61.2851 15.849 61.2851 31.9972C61.2851 48.1453 48.1453 61.2851 31.9972 61.2851C15.849 61.2851 2.70923 48.151 2.70923 31.9972C2.70923 15.8434 15.849 2.70923 31.9972 2.70923ZM31.9972 0C14.3251 0 0 14.3251 0 31.9972C0 49.6693 14.3251 63.9944 31.9972 63.9944C49.6693 63.9944 63.9944 49.6693 63.9944 31.9972C63.9944 14.3251 49.6693 0 31.9972 0Z" fill="black"/>
<path d="M45.8765 26.6239H38.2624C41.1353 24.9137 43.0261 21.9617 43.0261 18.1519C43.0261 11.9884 38.0874 8.03739 31.9973 8.03739C25.9071 8.03739 20.9684 11.9827 20.9684 18.1519C20.9684 21.9617 22.8593 24.9137 25.7322 26.6239H18.1181L14.5679 48.6928H49.421L45.8708 26.6239H45.8765ZM32.0029 13.0946C35.0508 13.0946 37.5173 15.0701 37.5173 18.1519C37.5173 21.2336 35.0508 23.2091 32.0029 23.2091C28.955 23.2091 26.4885 21.2336 26.4885 18.1519C26.4885 15.0701 28.955 13.0946 32.0029 13.0946Z" fill="black"/>
</g>
<defs>
<clipPath id="clip0_15211_846">
<rect width="64" height="64" fill="white"/>
</clipPath>
</defs>
</svg>
