<svg width="153" height="33" viewBox="0 0 153 33" fill="none" xmlns="http://www.w3.org/2000/svg">
<g clip-path="url(#clip0_15209_582)">
<path d="M115.519 0H109.303V4.86203H115.519V0Z" fill="black"/>
<path d="M32.3725 0.246179H26.1565V5.16975H32.3725V0.246179Z" fill="black"/>
<path d="M144.445 6.18729L153 6.1996V11.3242H144.49L144.478 25.8488H138.106V11.3529L135.768 11.3242V6.3391H137.983L137.991 3.50805H144.445V6.18729Z" fill="black"/>
<path d="M134.414 8.98552C135.46 10.401 135.398 12.3705 135.583 14.1553V25.9718H129.121V13.2936C128.936 12.5551 128.591 11.9479 127.644 11.6319C126.597 11.3242 125.272 11.2709 124.439 11.9479C123.528 12.5018 123.364 13.306 123.335 14.2784L123.315 25.9718H116.996V6.3391H123.028V8.12389C124.566 5.47747 128.074 5.72365 130.721 6.15447C132.136 6.64682 133.429 7.63154 134.414 8.98552Z" fill="black"/>
<path d="M62.7755 9.29324C64.9296 14.1553 63.8998 20.3097 63.9449 26.0949H57.7289L57.6879 14.5327C57.5689 13.8968 57.4376 13.2321 56.9903 12.6782C56.0508 11.7714 54.9594 11.6935 53.9131 11.9397C52.313 12.3705 51.8206 14.0937 51.6975 15.5093V26.0949H45.7892V14.6148C45.6866 12.9982 45.2025 12.7685 44.3122 12.2474C43.4054 11.7181 42.2196 11.8166 41.4811 12.2474C40.3117 12.8013 39.7414 13.7696 39.8809 15.2015V26.0949H33.8496V6.64682H39.4501L39.4706 8.98552C40.4554 7.75463 41.436 6.46219 43.4505 6.3391C46.2816 6.09292 48.9895 6.95455 50.3435 9.60097C52.0668 6.70837 55.3286 5.84674 58.4674 6.3391C60.1907 6.70837 61.7293 7.75463 62.7755 9.29324Z" fill="black"/>
<path d="M115.519 6.3391H109.303V25.9718H115.519V6.3391Z" fill="black"/>
<path d="M32.3725 6.64682H26.1565V26.0949H32.3725V6.64682Z" fill="black"/>
<path d="M25.541 26.0949H18.0326L16.8632 22.8249L8.75986 22.8002L7.07764 26.0949H0L10.0318 0.553902H15.6323L25.541 26.0949ZM12.6782 10.5857L10.4626 17.1094H14.8938L12.6782 10.5857Z" fill="black"/>
<path d="M149.726 25.1512H149.164V22.5253H150.144C150.821 22.5253 151.223 22.7182 151.223 23.3172C151.223 23.8014 150.94 23.9737 150.592 24.0024L151.264 25.1512H150.6L149.993 24.0475H149.726V25.1512ZM150.222 23.6044C150.473 23.6044 150.624 23.5511 150.624 23.2639C150.624 22.9931 150.333 22.9726 150.12 22.9726H149.726V23.6044H150.222ZM150.132 26.2837C148.835 26.2837 147.678 25.3851 147.678 23.8465C147.678 22.3079 148.831 21.4093 150.132 21.4093C151.433 21.4093 152.577 22.3079 152.577 23.8465C152.577 25.3851 151.424 26.2837 150.132 26.2837ZM150.132 21.9755C149.164 21.9755 148.384 22.7223 148.384 23.8465C148.384 24.9707 149.164 25.7257 150.132 25.7175V25.7257C151.076 25.7257 151.876 24.9707 151.876 23.8465C151.876 22.7223 151.076 21.9755 150.132 21.9755Z" fill="black"/>
<path d="M87.3606 16.3791C87.3606 10.6472 92.0093 6.00266 97.7411 6.00266C103.473 6.00266 108.118 10.6513 108.118 16.3791C108.118 22.1068 103.469 26.7596 97.7411 26.7596C92.0134 26.7596 87.3606 22.1109 87.3606 16.3791ZM97.934 20.8062C100.392 20.8062 102.382 18.8163 102.382 16.3586C102.382 13.9009 100.392 11.9109 97.934 11.9109C95.4763 11.9109 93.4863 13.9009 93.4863 16.3586C93.4863 18.8163 95.4763 20.8062 97.934 20.8062Z" fill="black"/>
<path d="M97.9586 18.2172C98.972 18.2172 99.7967 17.3966 99.7967 16.3791C99.7967 15.3615 98.972 14.5409 97.9586 14.5409C96.9451 14.5409 96.1204 15.3615 96.1204 16.3791C96.1204 17.3966 96.9451 18.2172 97.9586 18.2172Z" fill="#E30613"/>
<path d="M85.3624 11.3242C87.0241 14.4014 86.9626 18.8942 85.0547 21.8484C82.716 25.4179 78.5925 26.5873 74.469 25.9718C73.4228 25.8488 72.4996 25.1718 71.638 24.6179V32.4956H65.422V6.46219H71.638V8.12389C73.6074 6.09292 76.8693 6.09292 79.4541 6.64682C81.7928 7.38536 84.2546 8.98552 85.3624 11.3242ZM76.061 20.7611C78.5187 20.7611 80.5086 18.7711 80.5086 16.3134C80.5086 13.8558 78.5187 11.8658 76.061 11.8658C73.6033 11.8658 71.6134 13.8558 71.6134 16.3134C71.6134 18.7711 73.6033 20.7611 76.061 20.7611Z" fill="black"/>
</g>
<defs>
<clipPath id="clip0_15209_582">
<rect width="153" height="32.4956" fill="white"/>
</clipPath>
</defs>
</svg>
