<svg width="153" height="32" viewBox="0 0 153 32" fill="none" xmlns="http://www.w3.org/2000/svg">
<g clip-path="url(#clip0_15209_557)">
<path fill-rule="evenodd" clip-rule="evenodd" d="M83.7343 8.52961C82.0032 6.82608 79.2425 5.92844 76.6885 5.92844C74.6696 5.92844 73.2589 6.50293 71.8765 7.63197V6.03217H65.601V32H71.9292V24.4518C72.9548 25.2018 74.3859 25.8721 76.6885 25.8721C79.1492 25.8721 81.9748 24.9186 83.7383 23.1831C85.6518 21.3001 86.7463 18.6231 86.7463 15.8384C86.7463 13.0537 85.6193 10.3887 83.7343 8.52961ZM76.1453 20.3825C75.3304 20.3825 74.021 20.3266 73.0156 19.3333C72.1237 18.4556 71.6738 17.2986 71.6738 15.8983C71.6738 14.1548 72.4278 13.2412 73.0643 12.6189C73.9034 11.793 75.0507 11.414 76.2142 11.414C77.2885 11.414 78.3749 11.7771 79.1938 12.583C80.1141 13.4886 80.6249 14.5418 80.6249 15.8983C80.6249 19.1577 77.9574 20.3825 76.1534 20.3825H76.1453Z" fill="white"/>
<path fill-rule="evenodd" clip-rule="evenodd" d="M104.851 8.73707C102.946 6.86199 100.307 5.78481 97.6109 5.78481C91.9476 5.78481 87.3382 10.3329 87.3382 15.9262C87.3382 18.5952 88.4125 21.1206 90.3625 23.0355C92.3043 24.9465 94.8786 26.0037 97.6109 26.0037C100.343 26.0037 103.011 24.9385 104.896 23.0834C106.809 21.2003 107.819 18.7069 107.819 15.8624C107.819 13.0178 106.765 10.6201 104.851 8.73707ZM94.5907 12.567C95.4137 11.7571 96.5731 11.2545 97.6109 11.2545C98.6487 11.2545 99.6865 11.7053 100.489 12.4912C101.409 13.3968 101.916 14.6256 101.916 15.9581C101.916 18.2082 100.307 20.5381 97.615 20.5381C96.5001 20.5381 95.3975 20.0833 94.5907 19.2934C93.9786 18.6909 93.2489 17.6178 93.2489 15.9302C93.2489 14.2426 93.9826 13.1734 94.5948 12.571L94.5907 12.567Z" fill="white"/>
<path fill-rule="evenodd" clip-rule="evenodd" d="M144.138 5.91248V2.9722H138.167V5.91248H135.605V10.9114H138.167V25.7165H144.138V10.9114H153V5.91248H144.138Z" fill="white"/>
<path fill-rule="evenodd" clip-rule="evenodd" d="M15.9969 0L25.8926 26.0117H18.3401L17.1036 22.5488H8.35518L7.15522 26.0117H0L10.2078 0H15.9969ZM10.22 16.8358H15.3847L12.8024 9.72647L10.22 16.8358Z" fill="white"/>
<path fill-rule="evenodd" clip-rule="evenodd" d="M32.5491 0.0718117V4.86323H26.3709V0.0718117H32.5491ZM32.5491 6.25957V26.0077H26.3709V6.26356H32.5491V6.25957Z" fill="white"/>
<path fill-rule="evenodd" clip-rule="evenodd" d="M115.473 0.0718117V4.86323H109.294V0.0718117H115.473ZM115.473 6.25957V26.0077H109.294V6.26356H115.473V6.25957Z" fill="white"/>
<path fill-rule="evenodd" clip-rule="evenodd" d="M39.7125 8.76898C39.9881 8.29024 40.2638 7.8474 40.8922 7.33275C42.1124 6.33936 43.6813 5.93243 45.5704 5.93243C49.5433 5.93243 50.5243 7.66388 51.1527 8.76898C51.8216 7.81149 53.0783 5.93243 56.8931 5.93243C58.7011 5.93243 59.8403 6.19175 60.8659 6.67049C63.6956 8.03491 64.0767 11.2784 64.1537 14.3703V26.0117H57.7687V15.4395C57.7687 14.5179 57.7282 14.0032 57.5701 13.4487C57.0593 11.9766 54.9675 11.9766 54.6918 11.9766C53.9459 11.9766 53.2364 12.196 52.7662 12.6787C51.9797 13.3769 51.9797 14.4102 51.9797 15.5911V26.0157H45.8907V15.627C45.8501 14.2985 45.8136 13.4168 45.0637 12.7545C44.7475 12.4952 43.7583 12.1641 42.8543 12.1641C42.1083 12.1641 41.4394 12.3835 41.0057 12.7904C40.1787 13.5285 40.1422 14.5937 40.1016 15.6988V26.0157H33.9153V6.26356H39.7895L39.7125 8.76898Z" fill="white"/>
<path fill-rule="evenodd" clip-rule="evenodd" d="M122.806 7.71974C123.67 6.79815 124.744 5.8287 128.166 5.8287C129.815 5.8287 132.284 6.6665 133.699 8.13864C135.114 9.65067 135.155 11.9726 135.195 13.7758V26.0077H128.907V15.7387C128.867 14.2666 128.83 13.4527 128.474 12.7904C128.003 11.8688 126.718 11.5018 125.855 11.5018C125.267 11.5018 125.157 11.6853 124.647 11.9806C123.426 12.7904 123.528 14.1907 123.487 15.4435V26.0077H117.001V6.25957H122.81V7.71974H122.806Z" fill="white"/>
<path fill-rule="evenodd" clip-rule="evenodd" d="M97.5055 17.7454C98.515 17.7454 99.3379 16.9395 99.3379 15.9422C99.3379 14.9448 98.519 14.1429 97.5055 14.1429C96.492 14.1429 95.6772 14.9488 95.6772 15.9422C95.6772 16.9355 96.4961 17.7454 97.5055 17.7454Z" fill="#CD1719"/>
<path fill-rule="evenodd" clip-rule="evenodd" d="M146.688 24.2563C146.688 23.4265 147.369 22.8201 148.176 22.8201C148.983 22.8201 149.655 23.4305 149.655 24.2563C149.655 25.0822 148.974 25.7005 148.176 25.7005C147.377 25.7005 146.688 25.0901 146.688 24.2563ZM148.176 25.4612C148.837 25.4612 149.36 24.9505 149.36 24.2563C149.36 23.5621 148.837 23.0595 148.176 23.0595C147.515 23.0595 146.984 23.5741 146.984 24.2563C146.984 24.9385 147.507 25.4612 148.176 25.4612ZM147.868 25.0901H147.612V23.4265H148.257C148.658 23.4265 148.853 23.5701 148.853 23.9013C148.853 24.2005 148.662 24.3281 148.415 24.3601L148.897 25.0901H148.61L148.164 24.368H147.868V25.0901ZM148.172 24.1566C148.391 24.1566 148.581 24.1406 148.581 23.8853C148.581 23.6778 148.391 23.6419 148.212 23.6419H147.864V24.1566H148.168H148.172Z" fill="white"/>
</g>
<defs>
<clipPath id="clip0_15209_557">
<rect width="153" height="32" fill="white"/>
</clipPath>
</defs>
</svg>
