<svg width="173" height="8" viewBox="0 0 173 8" fill="none" xmlns="http://www.w3.org/2000/svg">
<g clip-path="url(#clip0_15676_11445)">
<path d="M172.033 0.23733L170.62 2.11125L169.227 0.23733H168.235V3.91595H169.162V1.46354L170.595 3.34734H170.63L172.073 1.46354V3.91595H173V0.23733H172.028H172.033ZM167.739 0.23733H163.827V1.03337H165.305V3.91595H166.267V1.03337H167.744V0.23733H167.739ZM162.389 0.23733H154.084V1.72064H157.362V7.76267H159.087V1.72064H162.389V0.23733ZM150.618 0.23733V3.19407H145.472V0.23733H143.746V7.76761H145.472V4.7021H150.618V7.76761H152.344V0.23733H150.618ZM141.52 3.51545H137.052V4.91471H139.898V5.64648C139.358 6.28925 138.431 6.54141 137.3 6.54141C135.297 6.54141 134.107 5.68109 134.107 4.00494C134.107 2.3288 135.262 1.46848 137.236 1.46848C138.381 1.46848 139.145 1.77009 139.804 2.41286L141.153 1.43387C140.399 0.702101 139.08 0.00494438 137.226 0.00494438C134.196 0.00494438 132.352 1.48826 132.352 4.00494C132.352 6.52163 134.196 8.00494 137.226 8.00494C139.274 8.00494 140.761 7.26329 141.52 6.2398V3.5204V3.51545ZM130.245 0.23733H128.519V7.76761H130.245V0.23733ZM122.401 3.12979C120.903 3.01112 119.822 2.94685 119.822 2.29913C119.822 1.61187 121.072 1.42892 122.098 1.43881C123.328 1.4487 124.349 1.70581 125.182 2.34363L126.129 1.15204C125.167 0.410383 123.744 0 122.098 0C119.768 0 118.087 0.860321 118.087 2.43263C118.087 4.00494 120.09 4.51916 122.247 4.7021C123.982 4.85043 124.761 5.02349 124.761 5.64648C124.761 6.26947 123.982 6.56119 122.455 6.56119C120.928 6.56119 119.718 6.16564 118.786 5.3152L117.794 6.48702C118.95 7.46601 120.502 8.00494 122.41 8.00494C125.083 8.00494 126.496 6.97157 126.496 5.48826C126.496 3.83189 124.805 3.32756 122.401 3.13473M110.506 0.23733V5.39926L105.418 0.23733H103.584V7.76761H105.255V2.32386L110.669 7.76761H112.182V0.23733H110.511H110.506ZM101.03 0.23733H99.3048V7.76761H101.03V0.23733ZM87.4743 6.32386V4.66749H92.4475V3.22868H87.4743V1.68109H93.4292V0.23733H85.7637V7.76761H93.5383V6.3288H87.4793L87.4743 6.32386ZM76.8735 3.78739V1.67614H80.2798C81.1872 1.67614 81.8516 1.88875 81.8516 2.7293C81.8516 3.56984 81.1822 3.78245 80.2798 3.78245H76.8735V3.78739ZM83.8399 7.76761L81.5095 5.08776C82.759 4.79604 83.6118 4 83.6118 2.71941C83.6118 1.08282 82.2185 0.23733 80.379 0.23733H75.1678V7.76761H76.8834V5.20643H79.6104L81.7772 7.76761H83.8349H83.8399ZM70.978 0.23733V4.089C70.978 5.59703 70.0955 6.49691 68.4642 6.49691C66.8329 6.49691 65.9503 5.59209 65.9503 4.089V0.23733H64.2248V4.21755C64.2248 6.47713 65.7222 8.00494 68.4642 8.00494C71.2061 8.00494 72.7035 6.47713 72.7035 4.21755V0.23733H70.978ZM62.5589 0.23733H54.2537V1.72064H57.5311V7.76267H59.2566V1.72064H62.5589V0.23733ZM50.8573 0.23733V4.089C50.8573 5.59703 49.9747 6.49691 48.3434 6.49691C46.7121 6.49691 45.8296 5.59209 45.8296 4.089V0.23733H44.1041V4.21755C44.1041 6.47713 45.6015 8.00494 48.3434 8.00494C51.0854 8.00494 52.5828 6.47713 52.5828 4.21755V0.23733H50.8573ZM42.3835 1.72064V0.23733H34.7478V7.76761H36.4732V4.94932H41.4563V3.46601H36.4732V1.72559H42.3835V1.72064ZM22.9173 6.32386V4.66749H27.8904V3.22868H22.9173V1.68109H28.8722V0.23733H21.2066V7.76761H28.9813V6.3288H22.9222L22.9173 6.32386ZM16.9028 0.23733V3.19407H11.7611V0.23733H10.0356V7.76761H11.7611V4.7021H16.9028V7.76761H18.6283V0.23733H16.9028ZM8.30515 0.23733H0V1.72064H3.27744V7.76267H5.00292V1.72064H8.30019V0.23733H8.30515Z" fill="white"/>
</g>
<defs>
<clipPath id="clip0_15676_11445">
<rect width="173" height="8" fill="white"/>
</clipPath>
</defs>
</svg>
