<svg width="24" height="24" viewBox="0 0 24 24" fill="none" xmlns="http://www.w3.org/2000/svg">
<path d="M8 3V21" stroke="black" stroke-linecap="square"/>
<path d="M20 3V21H6C4.89543 21 4 20.1046 4 19V5C4 3.89543 4.89543 3 6 3H20Z" stroke="black" stroke-linecap="square"/>
<path d="M8 17C8 15 11.3333 15.3334 12.6667 14C13.3333 13.3334 11.3333 13.3334 11.3333 10C11.3333 7.77802 12.222 6.66669 14 6.66669C15.778 6.66669 16.6667 7.77802 16.6667 10C16.6667 13.3334 14.6667 13.3334 15.3333 14C16.6667 15.3334 20 15 20 17" stroke="black" stroke-linecap="square"/>
</svg>
