<svg width="24" height="24" viewBox="0 0 24 24" fill="none" xmlns="http://www.w3.org/2000/svg">
<path d="M8.68677 4.05537C7.83556 4.09553 7.25412 4.23185 6.74611 4.43089C6.22019 4.63585 5.77442 4.91073 5.3309 5.35601C4.88689 5.80161 4.61425 6.24817 4.41073 6.77457C4.21377 7.28385 4.08016 7.8656 4.04272 8.71728C4.00528 9.57072 3.9968 9.84288 4.00096 12.0154C4.00512 14.1875 4.01472 14.4602 4.05536 15.3138C4.096 16.1648 4.23185 16.7459 4.43089 17.2542C4.63617 17.7802 4.91073 18.2257 5.35618 18.6694C5.80146 19.1131 6.24835 19.3856 6.77507 19.5893C7.28388 19.7861 7.8658 19.92 8.71733 19.9573C9.57062 19.9949 9.84311 20.0032 12.015 19.999C14.1878 19.9949 14.4603 19.9853 15.3136 19.9448C16.1648 19.9041 16.7456 19.7678 17.2542 19.5693C17.7802 19.3635 18.2259 19.0894 18.6694 18.644C19.113 18.1987 19.3856 17.7518 19.5891 17.2251C19.7861 16.7163 19.9202 16.1344 19.9571 15.2834C19.9944 14.4296 20.0032 14.1568 19.9991 11.9848C19.9949 9.81248 19.9851 9.54032 19.9447 8.6872C19.9042 7.83553 19.7679 7.25457 19.5691 6.74609C19.3635 6.22017 19.0893 5.77489 18.644 5.33089C18.1987 4.88737 17.7518 4.61425 17.2251 4.41121C16.716 4.21425 16.1344 4.08001 15.2828 4.04321C14.4297 4.00513 14.1574 3.99681 11.9847 4.00097C9.81255 4.00513 9.54022 4.01441 8.68693 4.05537M8.78021 18.5174C8.00021 18.4835 7.57668 18.3539 7.29444 18.2453C6.92067 18.1006 6.65395 17.9272 6.37315 17.6486C6.09299 17.3689 5.91906 17.103 5.77314 16.7301C5.66354 16.4478 5.53154 16.0248 5.49506 15.2448C5.45538 14.4016 5.44626 14.1486 5.44242 12.0125C5.43826 9.87696 5.4461 9.62384 5.4829 8.78C5.51634 8.00064 5.64674 7.57649 5.75506 7.29457C5.8997 6.92033 6.07251 6.65409 6.35171 6.37329C6.63139 6.09265 6.89731 5.91921 7.2706 5.77329C7.55268 5.66305 7.97557 5.53217 8.75525 5.49521C9.59894 5.45521 9.85175 5.44673 11.9873 5.44257C14.1233 5.43841 14.3764 5.44593 15.2203 5.48305C15.9997 5.51697 16.4238 5.64609 16.7056 5.75521C17.0797 5.89985 17.3464 6.07217 17.6269 6.35185C17.9074 6.63153 18.0813 6.89697 18.2272 7.27105C18.3373 7.55233 18.4683 7.97585 18.5051 8.7552C18.5453 9.59888 18.5544 9.85184 18.5582 11.9875C18.5624 14.1237 18.5546 14.3766 18.5176 15.22C18.4837 16 18.3542 16.4237 18.2454 16.7062C18.1008 17.0797 17.9278 17.3464 17.6485 17.6272C17.3691 17.9069 17.1032 18.0813 16.7296 18.2272C16.4481 18.3371 16.0246 18.4683 15.2454 18.5053C14.4017 18.5449 14.1489 18.5541 12.0126 18.5579C9.87703 18.5621 9.62422 18.5541 8.78037 18.5174M15.3019 7.72369C15.3028 8.25344 15.7337 8.6824 16.2635 8.68144C16.7936 8.68048 17.2225 8.24992 17.2217 7.72001C17.2206 7.19025 16.7899 6.76097 16.2598 6.76193C15.7297 6.76289 15.3008 7.19377 15.3017 7.72353M7.89237 12.0078C7.89669 14.2766 9.73943 16.1118 12.0078 16.1074C14.2763 16.1029 16.1125 14.2608 16.1081 11.992C16.1037 9.724 14.2608 7.88785 11.9919 7.89216C9.72358 7.89665 7.88789 9.73952 7.89237 12.0078ZM9.33334 12.005C9.33078 10.5325 10.5226 9.33616 11.9948 9.3336C13.4673 9.33072 14.6638 10.5221 14.6667 11.9949C14.6696 13.4677 13.4777 14.6637 12.0049 14.6666C10.5326 14.6694 9.33606 13.4779 9.33334 12.0051" fill="black"/>
</svg>
